<svg xmlns="http://www.w3.org/2000/svg" viewBox="0 0 256 256" width="256" height="256" role="img" aria-label="MzITHPUTTINI portrait">
  <defs>
    <linearGradient id="bgmhntzm" x1="0" y1="0" x2="0" y2="1">
      <stop offset="0" stop-color="#0F172A"/>
      <stop offset="1" stop-color="#1E293B"/>
    </linearGradient>
  </defs>
  <rect width="256" height="256" fill="url(#bgmhntzm)"/>
  <!-- Shoulders / shirt -->
  <path d="M16 256 Q16 178 128 170 Q240 178 240 256 Z" fill="#075985"/>
  <path d="M16 256 Q16 178 128 170 Q240 178 240 256 Z" fill="#FFFFFF" opacity="0.04"/>
  <!-- Neck -->
  <rect x="114" y="150" width="28" height="28" fill="#8D5524"/>
  <rect x="114" y="174" width="28" height="6" fill="#000" opacity="0.18"/>
  <!-- Head + ears -->
  <ellipse cx="74" cy="132" rx="6" ry="9" fill="#8D5524"/>
            <ellipse cx="182" cy="132" rx="6" ry="9" fill="#8D5524"/>
  <ellipse cx="128" cy="128" rx="52" ry="54" fill="#8D5524"/>
  <!-- Face features -->
  <path d="M98 116 Q108 110 118 116" stroke="#FB923C" stroke-width="3" stroke-linecap="round" fill="none"/>
                    <path d="M138 116 Q148 110 158 116" stroke="#FB923C" stroke-width="3" stroke-linecap="round" fill="none"/>
  <ellipse cx="108" cy="132" rx="6" ry="5" fill="#F1F5F9"/>
                    <ellipse cx="148" cy="132" rx="6" ry="5" fill="#F1F5F9"/>
                    <circle cx="108" cy="132" r="2.8" fill="#1F2937"/>
                    <circle cx="148" cy="132" r="2.8" fill="#1F2937"/>
                    <circle cx="109" cy="131" r="0.9" fill="#FFFFFF"/>
                    <circle cx="149" cy="131" r="0.9" fill="#FFFFFF"/>
  <path d="M126 152 Q128 156 130 152" stroke="#000" stroke-width="1" stroke-linecap="round" opacity="0.18" fill="none"/>
  <ellipse cx="128" cy="167" rx="9" ry="3" fill="#2A140F" opacity="0.85"/>
                    <rect x="119" y="167" width="18" height="1" fill="#FFFFFF" opacity="0.12"/>
  
  <!-- Hair / headwear -->
  <path d="M68 110 Q68 56 128 56 Q188 56 188 110 L188 122 Q176 102 128 102 Q80 102 68 122 Z" fill="#FB923C"/>
                    <rect x="64" y="118" width="8" height="38" rx="4" fill="#FB923C"/>
                    <rect x="80" y="120" width="8" height="44" rx="4" fill="#FB923C"/>
                    <rect x="96" y="118" width="8" height="38" rx="4" fill="#FB923C" opacity="0.9"/>
                    <rect x="152" y="118" width="8" height="38" rx="4" fill="#FB923C" opacity="0.9"/>
                    <rect x="168" y="120" width="8" height="44" rx="4" fill="#FB923C"/>
                    <rect x="184" y="118" width="8" height="38" rx="4" fill="#FB923C"/>
  <!-- Accessory layer -->
  
  <!-- Subtle chin shadow -->
  <ellipse cx="128" cy="184" rx="30" ry="6" fill="#000" opacity="0.16"/>
</svg>
