<svg xmlns="http://www.w3.org/2000/svg" viewBox="0 0 256 256" width="256" height="256" role="img" aria-label="9ql portrait">
  <defs>
    <linearGradient id="bgpqpzof" x1="0" y1="0" x2="0" y2="1">
      <stop offset="0" stop-color="#450A0A"/>
      <stop offset="1" stop-color="#7F1D1D"/>
    </linearGradient>
  </defs>
  <rect width="256" height="256" fill="url(#bgpqpzof)"/>
  <!-- Shoulders / shirt -->
  <path d="M16 256 Q16 178 128 170 Q240 178 240 256 Z" fill="#0F766E"/>
  <path d="M16 256 Q16 178 128 170 Q240 178 240 256 Z" fill="#FFFFFF" opacity="0.04"/>
  <!-- Neck -->
  <rect x="114" y="150" width="28" height="28" fill="#6B4423"/>
  <rect x="114" y="174" width="28" height="6" fill="#000" opacity="0.18"/>
  <!-- Head + ears -->
  <ellipse cx="74" cy="132" rx="6" ry="9" fill="#6B4423"/>
            <ellipse cx="182" cy="132" rx="6" ry="9" fill="#6B4423"/>
  <ellipse cx="128" cy="128" rx="50" ry="60" fill="#6B4423"/>
  <!-- Face features -->
  <path d="M98 116 Q108 110 118 116" stroke="#2B2420" stroke-width="3" stroke-linecap="round" fill="none"/>
                    <path d="M138 116 Q148 110 158 116" stroke="#2B2420" stroke-width="3" stroke-linecap="round" fill="none"/>
  <ellipse cx="108" cy="132" rx="7" ry="4" fill="#F1F5F9"/>
                    <ellipse cx="148" cy="132" rx="7" ry="4" fill="#F1F5F9"/>
                    <circle cx="108" cy="132" r="2.6" fill="#166534"/>
                    <circle cx="148" cy="132" r="2.6" fill="#166534"/>
  <path d="M126 152 Q128 156 130 152" stroke="#000" stroke-width="1" stroke-linecap="round" opacity="0.18" fill="none"/>
  <path d="M118 166 Q128 170 142 164" stroke="#3A1F1A" stroke-width="2" stroke-linecap="round" fill="none"/>
  <ellipse cx="128" cy="170" rx="36" ry="12" fill="#2B2420" opacity="0.18"/>
  <!-- Hair / headwear -->
  <path d="M76 110 Q76 78 128 78 Q180 78 180 110 L180 120 Q156 102 128 102 Q100 102 76 120 Z" fill="#2B2420" opacity="0.85"/>
  <!-- Accessory layer -->
  <rect x="90" y="124" width="34" height="18" rx="6" fill="#0F1116"/>
                    <rect x="132" y="124" width="34" height="18" rx="6" fill="#0F1116"/>
                    <line x1="124" y1="132" x2="132" y2="132" stroke="#0F1116" stroke-width="3"/>
                    <rect x="94" y="126" width="6" height="3" rx="1" fill="#78350F" opacity="0.6"/>
                    <rect x="136" y="126" width="6" height="3" rx="1" fill="#78350F" opacity="0.6"/>
  <!-- Subtle chin shadow -->
  <ellipse cx="128" cy="184" rx="30" ry="6" fill="#000" opacity="0.16"/>
</svg>
