<svg xmlns="http://www.w3.org/2000/svg" viewBox="0 0 100 100" width="256" height="256" class="shrink-0" role="img" aria-label="Mouze logo"><defs><linearGradient id="club-_R_0_-color" x1="0" y1="0" x2="0.8" y2="1"><stop offset="0" stop-color="#E2061B"></stop><stop offset="1" stop-color="#E2061B" stop-opacity="0.7"></stop></linearGradient></defs><g stroke-linejoin="round"><path d="M30 42C6 42 6 9 27 9 38 9 43 17 42 29L50 26 58 29C57 17 62 9 73 9 94 9 94 42 70 42L75 57 62 78 50 87 38 78 25 57Z" fill="#0a1420" stroke="#94a3b8" stroke-width="9"></path><path d="M30 42C6 42 6 9 27 9 38 9 43 17 42 29L50 26 58 29C57 17 62 9 73 9 94 9 94 42 70 42L75 57 62 78 50 87 38 78 25 57Z" fill="url(#club-_R_0_-color)" stroke="#E2061B" stroke-width="2"></path><path d="M27 17C14 17 16 34 29 33L35 22Z M73 17C86 17 84 34 71 33L65 22Z M50 26 36 52 39 72 50 87 38 78 25 57 30 42Z" fill="#0a1420" fill-opacity="0.48"></path><path d="M35 47 44 51 40 56Z M65 47 56 51 60 56Z M44 64H56L50 70Z" fill="#FFFFFF"></path></g></svg>