<svg xmlns="http://www.w3.org/2000/svg" viewBox="0 0 256 256" width="256" height="256" role="img" aria-label="Qrim portrait">
  <defs>
    <linearGradient id="bgyqew50" x1="0" y1="0" x2="0" y2="1">
      <stop offset="0" stop-color="#3B0764"/>
      <stop offset="1" stop-color="#6B21A8"/>
    </linearGradient>
  </defs>
  <rect width="256" height="256" fill="url(#bgyqew50)"/>
  <!-- Shoulders / shirt -->
  <path d="M16 256 Q16 178 128 170 Q240 178 240 256 Z" fill="#78350F"/>
  <path d="M16 256 Q16 178 128 170 Q240 178 240 256 Z" fill="#FFFFFF" opacity="0.04"/>
  <!-- Neck -->
  <rect x="114" y="150" width="28" height="28" fill="#4F2F1F"/>
  <rect x="114" y="174" width="28" height="6" fill="#000" opacity="0.18"/>
  <!-- Head + ears -->
  <ellipse cx="74" cy="132" rx="6" ry="9" fill="#4F2F1F"/>
            <ellipse cx="182" cy="132" rx="6" ry="9" fill="#4F2F1F"/>
  <ellipse cx="128" cy="128" rx="50" ry="60" fill="#4F2F1F"/>
  <!-- Face features -->
  <rect x="98" y="116" width="20" height="3" rx="1.5" fill="#3D2B1F"/>
                    <rect x="138" y="116" width="20" height="3" rx="1.5" fill="#3D2B1F"/>
  <ellipse cx="108" cy="132" rx="7" ry="2" fill="#F1F5F9"/>
                    <ellipse cx="148" cy="132" rx="7" ry="2" fill="#F1F5F9"/>
                    <circle cx="108" cy="132" r="1.8" fill="#92400E"/>
                    <circle cx="148" cy="132" r="1.8" fill="#92400E"/>
  <path d="M126 152 Q128 156 130 152" stroke="#000" stroke-width="1" stroke-linecap="round" opacity="0.18" fill="none"/>
  <path d="M116 164 Q128 174 140 164" stroke="#3A1F1A" stroke-width="2.2" stroke-linecap="round" fill="none"/>
  
  <!-- Hair / headwear -->
  <path d="M76 110 Q76 78 128 78 Q180 78 180 110 L180 120 Q156 102 128 102 Q100 102 76 120 Z" fill="#3D2B1F" opacity="0.85"/>
  <!-- Accessory layer -->
  <rect x="60" y="106" width="136" height="12" rx="3" fill="#374151"/>
                    <rect x="60" y="110" width="136" height="3" rx="1" fill="#FFFFFF" opacity="0.18"/>
  <!-- Subtle chin shadow -->
  <ellipse cx="128" cy="184" rx="30" ry="6" fill="#000" opacity="0.16"/>
</svg>
