<svg xmlns="http://www.w3.org/2000/svg" viewBox="0 0 256 256" width="256" height="256" role="img" aria-label="QAYEV portrait">
  <defs>
    <linearGradient id="bg3oyife" x1="0" y1="0" x2="0" y2="1">
      <stop offset="0" stop-color="#042F2E"/>
      <stop offset="1" stop-color="#134E4A"/>
    </linearGradient>
  </defs>
  <rect width="256" height="256" fill="url(#bg3oyife)"/>
  <!-- Shoulders / shirt -->
  <path d="M16 256 Q16 178 128 170 Q240 178 240 256 Z" fill="#312E81"/>
  <path d="M16 256 Q16 178 128 170 Q240 178 240 256 Z" fill="#FFFFFF" opacity="0.04"/>
  <!-- Neck -->
  <rect x="114" y="150" width="28" height="28" fill="#C68B5F"/>
  <rect x="114" y="174" width="28" height="6" fill="#000" opacity="0.18"/>
  <!-- Head + ears -->
  <ellipse cx="74" cy="132" rx="6" ry="9" fill="#C68B5F"/>
            <ellipse cx="182" cy="132" rx="6" ry="9" fill="#C68B5F"/>
  <ellipse cx="128" cy="128" rx="52" ry="54" fill="#C68B5F"/>
  <!-- Face features -->
  <rect x="100" y="117" width="18" height="1.6" rx="0.8" fill="#3D2B1F" opacity="0.8"/>
                    <rect x="138" y="117" width="18" height="1.6" rx="0.8" fill="#3D2B1F" opacity="0.8"/>
  <ellipse cx="108" cy="132" rx="7" ry="2" fill="#F1F5F9"/>
                    <ellipse cx="148" cy="132" rx="7" ry="2" fill="#F1F5F9"/>
                    <circle cx="108" cy="132" r="1.8" fill="#4338CA"/>
                    <circle cx="148" cy="132" r="1.8" fill="#4338CA"/>
  <path d="M126 152 Q128 156 130 152" stroke="#000" stroke-width="1" stroke-linecap="round" opacity="0.18" fill="none"/>
  <rect x="118" y="166" width="20" height="2" rx="1" fill="#3A1F1A" opacity="0.85"/>
  
  <!-- Hair / headwear -->
  
  <!-- Accessory layer -->
  
  <!-- Subtle chin shadow -->
  <ellipse cx="128" cy="184" rx="30" ry="6" fill="#000" opacity="0.16"/>
</svg>
