<svg xmlns="http://www.w3.org/2000/svg" viewBox="0 0 256 256" width="256" height="256" role="img" aria-label="rekk portrait">
  <defs>
    <linearGradient id="bg1cc83t8" x1="0" y1="0" x2="0" y2="1">
      <stop offset="0" stop-color="#052E16"/>
      <stop offset="1" stop-color="#14532D"/>
    </linearGradient>
  </defs>
  <rect width="256" height="256" fill="url(#bg1cc83t8)"/>
  <!-- Shoulders / shirt -->
  <path d="M16 256 Q16 178 128 170 Q240 178 240 256 Z" fill="#78350F"/>
  <path d="M16 256 Q16 178 128 170 Q240 178 240 256 Z" fill="#FFFFFF" opacity="0.04"/>
  <!-- Neck -->
  <rect x="114" y="150" width="28" height="28" fill="#6B4423"/>
  <rect x="114" y="174" width="28" height="6" fill="#000" opacity="0.18"/>
  <!-- Head + ears -->
  <ellipse cx="74" cy="132" rx="6" ry="9" fill="#6B4423"/>
            <ellipse cx="182" cy="132" rx="6" ry="9" fill="#6B4423"/>
  <ellipse cx="128" cy="128" rx="52" ry="54" fill="#6B4423"/>
  <!-- Face features -->
  <path d="M98 116 Q108 110 118 116" stroke="#C4B5FD" stroke-width="3" stroke-linecap="round" fill="none"/>
                    <path d="M138 116 Q148 110 158 116" stroke="#C4B5FD" stroke-width="3" stroke-linecap="round" fill="none"/>
  <ellipse cx="108" cy="132" rx="7" ry="2" fill="#F1F5F9"/>
                    <ellipse cx="148" cy="132" rx="7" ry="2" fill="#F1F5F9"/>
                    <circle cx="108" cy="132" r="1.8" fill="#0E7490"/>
                    <circle cx="148" cy="132" r="1.8" fill="#0E7490"/>
  <path d="M126 152 Q128 156 130 152" stroke="#000" stroke-width="1" stroke-linecap="round" opacity="0.18" fill="none"/>
  <rect x="118" y="164" width="20" height="5" rx="1.5" fill="#2A140F"/>
                    <rect x="120" y="165" width="3" height="3" fill="#FFFFFF" opacity="0.8"/>
                    <rect x="125" y="165" width="3" height="3" fill="#FFFFFF" opacity="0.8"/>
                    <rect x="130" y="165" width="3" height="3" fill="#FFFFFF" opacity="0.8"/>
                    <rect x="135" y="165" width="3" height="3" fill="#FFFFFF" opacity="0.8"/>
  <path d="M82 152 Q82 196 128 196 Q174 196 174 152 Q170 184 128 188 Q86 184 82 152 Z" fill="#C4B5FD"/>
                    <path d="M110 162 Q128 156 146 162 L142 166 Q128 160 114 166 Z" fill="#C4B5FD"/>
  <!-- Hair / headwear -->
  <path d="M68 108 Q68 60 128 60 Q188 60 188 108 L188 124 Q176 100 128 100 Q80 100 68 124 Z" fill="#C4B5FD"/>
  <!-- Accessory layer -->
  
  <!-- Subtle chin shadow -->
  <ellipse cx="128" cy="184" rx="30" ry="6" fill="#000" opacity="0.16"/>
</svg>
