<svg xmlns="http://www.w3.org/2000/svg" viewBox="0 0 256 256" width="256" height="256" role="img" aria-label="susu portrait">
  <defs>
    <linearGradient id="bg1uglpvc" x1="0" y1="0" x2="0" y2="1">
      <stop offset="0" stop-color="#042F2E"/>
      <stop offset="1" stop-color="#134E4A"/>
    </linearGradient>
  </defs>
  <rect width="256" height="256" fill="url(#bg1uglpvc)"/>
  <!-- Shoulders / shirt -->
  <path d="M16 256 Q16 178 128 170 Q240 178 240 256 Z" fill="#1E293B"/>
  <path d="M16 256 Q16 178 128 170 Q240 178 240 256 Z" fill="#FFFFFF" opacity="0.04"/>
  <!-- Neck -->
  <rect x="114" y="150" width="28" height="28" fill="#E5B888"/>
  <rect x="114" y="174" width="28" height="6" fill="#000" opacity="0.18"/>
  <!-- Head + ears -->
  <ellipse cx="74" cy="132" rx="6" ry="9" fill="#E5B888"/>
            <ellipse cx="182" cy="132" rx="6" ry="9" fill="#E5B888"/>
  <rect x="74" y="72" width="108" height="112" rx="22" fill="#E5B888"/>
  <!-- Face features -->
  <path d="M98 119 L120 114" stroke="#C4B5FD" stroke-width="3.5" stroke-linecap="round"/>
                    <path d="M158 119 L136 114" stroke="#C4B5FD" stroke-width="3.5" stroke-linecap="round"/>
  <path d="M101 132 Q108 135 115 132" stroke="#4338CA" stroke-width="2" stroke-linecap="round" fill="none"/>
                    <path d="M141 132 Q148 135 155 132" stroke="#4338CA" stroke-width="2" stroke-linecap="round" fill="none"/>
  <path d="M126 152 Q128 156 130 152" stroke="#000" stroke-width="1" stroke-linecap="round" opacity="0.18" fill="none"/>
  <path d="M118 166 Q128 170 142 164" stroke="#3A1F1A" stroke-width="2" stroke-linecap="round" fill="none"/>
  <path d="M82 152 Q82 196 128 196 Q174 196 174 152 Q170 184 128 188 Q86 184 82 152 Z" fill="#C4B5FD"/>
                    <path d="M110 162 Q128 156 146 162 L142 166 Q128 160 114 166 Z" fill="#C4B5FD"/>
  <!-- Hair / headwear -->
  <path d="M68 108 Q68 60 128 60 Q188 60 188 108 L188 124 Q176 100 128 100 Q80 100 68 124 Z" fill="#C4B5FD"/>
  <!-- Accessory layer -->
  <circle cx="74" cy="138" r="5" fill="#0F1116"/>
                    <circle cx="182" cy="138" r="5" fill="#0F1116"/>
                    <rect x="72" y="142" width="4" height="6" rx="1.5" fill="#0F1116"/>
                    <rect x="180" y="142" width="4" height="6" rx="1.5" fill="#0F1116"/>
  <!-- Subtle chin shadow -->
  <ellipse cx="128" cy="184" rx="30" ry="6" fill="#000" opacity="0.16"/>
</svg>
