<svg xmlns="http://www.w3.org/2000/svg" viewBox="0 0 256 256" width="256" height="256" role="img" aria-label="Bxrollan portrait">
  <defs>
    <linearGradient id="bgo7pre5" x1="0" y1="0" x2="0" y2="1">
      <stop offset="0" stop-color="#0C4A6E"/>
      <stop offset="1" stop-color="#075985"/>
    </linearGradient>
  </defs>
  <rect width="256" height="256" fill="url(#bgo7pre5)"/>
  <!-- Shoulders / shirt -->
  <path d="M16 256 Q16 178 128 170 Q240 178 240 256 Z" fill="#0F766E"/>
  <path d="M16 256 Q16 178 128 170 Q240 178 240 256 Z" fill="#FFFFFF" opacity="0.04"/>
  <!-- Neck -->
  <rect x="114" y="150" width="28" height="28" fill="#8D5524"/>
  <rect x="114" y="174" width="28" height="6" fill="#000" opacity="0.18"/>
  <!-- Head + ears -->
  <ellipse cx="74" cy="132" rx="6" ry="9" fill="#8D5524"/>
            <ellipse cx="182" cy="132" rx="6" ry="9" fill="#8D5524"/>
  <rect x="74" y="72" width="108" height="112" rx="22" fill="#8D5524"/>
  <!-- Face features -->
  <rect x="98" y="116" width="20" height="3" rx="1.5" fill="#1F1812"/>
                    <rect x="138" y="116" width="20" height="3" rx="1.5" fill="#1F1812"/>
  <path d="M101 132 Q108 135 115 132" stroke="#4338CA" stroke-width="2" stroke-linecap="round" fill="none"/>
                    <path d="M141 132 Q148 135 155 132" stroke="#4338CA" stroke-width="2" stroke-linecap="round" fill="none"/>
  <path d="M126 152 Q128 156 130 152" stroke="#000" stroke-width="1" stroke-linecap="round" opacity="0.18" fill="none"/>
  <ellipse cx="128" cy="167" rx="9" ry="3" fill="#2A140F" opacity="0.85"/>
                    <rect x="119" y="167" width="18" height="1" fill="#FFFFFF" opacity="0.12"/>
  <ellipse cx="128" cy="170" rx="36" ry="12" fill="#1F1812" opacity="0.18"/>
  <!-- Hair / headwear -->
  <path d="M70 110 Q70 60 128 60 Q186 60 186 110 L186 122 Q172 100 128 100 Q84 100 70 122 Z" fill="#1F1812"/>
                    <circle cx="128" cy="48" r="14" fill="#1F1812"/>
                    <circle cx="128" cy="48" r="10" fill="#1F1812" opacity="0.7"/>
  <!-- Accessory layer -->
  
  <!-- Subtle chin shadow -->
  <ellipse cx="128" cy="184" rx="30" ry="6" fill="#000" opacity="0.16"/>
</svg>
