<svg xmlns="http://www.w3.org/2000/svg" viewBox="0 0 256 256" width="256" height="256" role="img" aria-label="mzenddel portrait">
  <defs>
    <linearGradient id="bg1kl2dts" x1="0" y1="0" x2="0" y2="1">
      <stop offset="0" stop-color="#3B0764"/>
      <stop offset="1" stop-color="#6B21A8"/>
    </linearGradient>
  </defs>
  <rect width="256" height="256" fill="url(#bg1kl2dts)"/>
  <!-- Shoulders / shirt -->
  <path d="M16 256 Q16 178 128 170 Q240 178 240 256 Z" fill="#9F1239"/>
  <path d="M16 256 Q16 178 128 170 Q240 178 240 256 Z" fill="#FFFFFF" opacity="0.04"/>
  <!-- Neck -->
  <rect x="114" y="150" width="28" height="28" fill="#F1C9A5"/>
  <rect x="114" y="174" width="28" height="6" fill="#000" opacity="0.18"/>
  <!-- Head + ears -->
  <ellipse cx="74" cy="132" rx="6" ry="9" fill="#F1C9A5"/>
            <ellipse cx="182" cy="132" rx="6" ry="9" fill="#F1C9A5"/>
  <ellipse cx="128" cy="128" rx="58" ry="52" fill="#F1C9A5"/>
  <!-- Face features -->
  <rect x="98" y="116" width="20" height="3" rx="1.5" fill="#22D3EE"/>
                    <rect x="138" y="116" width="20" height="3" rx="1.5" fill="#22D3EE"/>
  <path d="M101 132 Q108 135 115 132" stroke="#7C2D12" stroke-width="2" stroke-linecap="round" fill="none"/>
                    <path d="M141 132 Q148 135 155 132" stroke="#7C2D12" stroke-width="2" stroke-linecap="round" fill="none"/>
  <path d="M126 152 Q128 156 130 152" stroke="#000" stroke-width="1" stroke-linecap="round" opacity="0.18" fill="none"/>
  <ellipse cx="128" cy="167" rx="9" ry="3" fill="#2A140F" opacity="0.85"/>
                    <rect x="119" y="167" width="18" height="1" fill="#FFFFFF" opacity="0.12"/>
  
  <!-- Hair / headwear -->
  <path d="M68 110 Q68 56 128 56 Q188 56 188 110 L188 122 Q176 102 128 102 Q80 102 68 122 Z" fill="#22D3EE"/>
                    <rect x="64" y="118" width="8" height="38" rx="4" fill="#22D3EE"/>
                    <rect x="80" y="120" width="8" height="44" rx="4" fill="#22D3EE"/>
                    <rect x="96" y="118" width="8" height="38" rx="4" fill="#22D3EE" opacity="0.9"/>
                    <rect x="152" y="118" width="8" height="38" rx="4" fill="#22D3EE" opacity="0.9"/>
                    <rect x="168" y="120" width="8" height="44" rx="4" fill="#22D3EE"/>
                    <rect x="184" y="118" width="8" height="38" rx="4" fill="#22D3EE"/>
  <!-- Accessory layer -->
  
  <!-- Subtle chin shadow -->
  <ellipse cx="128" cy="184" rx="30" ry="6" fill="#000" opacity="0.16"/>
</svg>
