<svg xmlns="http://www.w3.org/2000/svg" viewBox="0 0 256 256" width="256" height="256" role="img" aria-label="QaBi portrait">
  <defs>
    <linearGradient id="bg1cmu6wu" x1="0" y1="0" x2="0" y2="1">
      <stop offset="0" stop-color="#0F172A"/>
      <stop offset="1" stop-color="#1E293B"/>
    </linearGradient>
  </defs>
  <rect width="256" height="256" fill="url(#bg1cmu6wu)"/>
  <!-- Shoulders / shirt -->
  <path d="M16 256 Q16 178 128 170 Q240 178 240 256 Z" fill="#78350F"/>
  <path d="M16 256 Q16 178 128 170 Q240 178 240 256 Z" fill="#FFFFFF" opacity="0.04"/>
  <!-- Neck -->
  <rect x="114" y="150" width="28" height="28" fill="#B07A4D"/>
  <rect x="114" y="174" width="28" height="6" fill="#000" opacity="0.18"/>
  <!-- Head + ears -->
  <ellipse cx="74" cy="132" rx="6" ry="9" fill="#B07A4D"/>
            <ellipse cx="182" cy="132" rx="6" ry="9" fill="#B07A4D"/>
  <ellipse cx="128" cy="128" rx="58" ry="52" fill="#B07A4D"/>
  <!-- Face features -->
  <path d="M98 116 Q108 110 118 116" stroke="#A66A3A" stroke-width="3" stroke-linecap="round" fill="none"/>
                    <path d="M138 116 Q148 110 158 116" stroke="#A66A3A" stroke-width="3" stroke-linecap="round" fill="none"/>
  <path d="M101 132 Q108 135 115 132" stroke="#92400E" stroke-width="2" stroke-linecap="round" fill="none"/>
                    <path d="M141 132 Q148 135 155 132" stroke="#92400E" stroke-width="2" stroke-linecap="round" fill="none"/>
  <path d="M126 152 Q128 156 130 152" stroke="#000" stroke-width="1" stroke-linecap="round" opacity="0.18" fill="none"/>
  <path d="M116 164 Q128 174 140 164" stroke="#3A1F1A" stroke-width="2.2" stroke-linecap="round" fill="none"/>
  <path d="M118 172 Q128 192 138 172 L136 178 Q128 188 120 178 Z" fill="#A66A3A"/>
  <!-- Hair / headwear -->
  <path d="M68 108 Q68 60 128 60 Q188 60 188 108 L188 124 Q176 100 128 100 Q80 100 68 124 Z" fill="#A66A3A"/>
  <!-- Accessory layer -->
  
  <!-- Subtle chin shadow -->
  <ellipse cx="128" cy="184" rx="30" ry="6" fill="#000" opacity="0.16"/>
</svg>
